<svg xmlns="http://www.w3.org/2000/svg" xmlns:xlink="http://www.w3.org/1999/xlink" width="480" zoomAndPan="magnify" viewBox="0 0 360 119.999999" height="160" preserveAspectRatio="xMidYMid meet" version="1.0"><defs><g/><clipPath id="055495ee97"><path d="M 80 16.242188 L 101 16.242188 L 101 46 L 80 46 Z M 80 16.242188 " clip-rule="nonzero"/></clipPath><clipPath id="9d6dc4e980"><path d="M 69.464844 20 L 111.464844 20 L 111.464844 64.242188 L 69.464844 64.242188 Z M 69.464844 20 " clip-rule="nonzero"/></clipPath><clipPath id="ff082b011e"><path d="M 233 63 L 254 63 L 254 92.289062 L 233 92.289062 Z M 233 63 " clip-rule="nonzero"/></clipPath><clipPath id="9497200e4a"><path d="M 222.054688 44.289062 L 264.054688 44.289062 L 264.054688 89 L 222.054688 89 Z M 222.054688 44.289062 " clip-rule="nonzero"/></clipPath></defs><rect x="-36" width="432" fill="#ffffff" y="-12" height="143.999998" fill-opacity="1"/><rect x="-36" width="432" fill="#98ded9" y="-12" height="143.999998" fill-opacity="1"/><g clip-path="url(#055495ee97)"><path fill="#ffffff" d="M 81.324219 43.417969 C 81.230469 43.300781 81.105469 43.242188 80.957031 43.242188 C 80.808594 43.242188 80.683594 43.300781 80.589844 43.417969 L 80.144531 43.96875 C 80.074219 44.054688 80.039062 44.15625 80.039062 44.265625 C 80.039062 44.378906 80.074219 44.476562 80.144531 44.5625 L 80.589844 45.109375 C 80.683594 45.226562 80.804688 45.289062 80.957031 45.289062 C 81.109375 45.289062 81.230469 45.226562 81.324219 45.109375 L 81.746094 44.5625 C 81.902344 44.367188 81.902344 44.167969 81.746094 43.96875 Z M 81.324219 16.421875 C 81.230469 16.304688 81.105469 16.246094 80.957031 16.246094 C 80.808594 16.246094 80.683594 16.304688 80.589844 16.421875 L 80.144531 16.972656 C 80.074219 17.058594 80.039062 17.15625 80.039062 17.269531 C 80.039062 17.378906 80.074219 17.476562 80.144531 17.566406 L 80.589844 18.117188 C 80.683594 18.230469 80.808594 18.289062 80.957031 18.289062 C 81.105469 18.289062 81.230469 18.230469 81.324219 18.117188 L 81.746094 17.566406 C 81.902344 17.367188 81.902344 17.167969 81.746094 16.972656 Z M 100.109375 19.574219 L 99.863281 19.265625 C 99.769531 19.152344 99.644531 19.09375 99.496094 19.09375 C 99.34375 19.09375 99.222656 19.152344 99.125 19.265625 L 98.878906 19.574219 C 98.808594 19.660156 98.773438 19.757812 98.773438 19.867188 C 98.773438 19.980469 98.808594 20.078125 98.878906 20.164062 L 99.113281 20.484375 C 99.207031 20.601562 99.332031 20.660156 99.480469 20.660156 C 99.632812 20.660156 99.753906 20.601562 99.851562 20.484375 L 100.097656 20.179688 C 100.171875 20.09375 100.210938 19.992188 100.210938 19.878906 C 100.214844 19.761719 100.179688 19.660156 100.109375 19.574219 Z M 98.09375 31.535156 C 98 31.417969 97.875 31.359375 97.726562 31.359375 C 97.574219 31.359375 97.453125 31.417969 97.359375 31.535156 L 96.785156 32.25 C 96.714844 32.335938 96.679688 32.433594 96.679688 32.542969 C 96.679688 32.65625 96.714844 32.753906 96.785156 32.839844 L 97.359375 33.550781 C 97.453125 33.667969 97.574219 33.726562 97.726562 33.726562 C 97.875 33.726562 98 33.667969 98.09375 33.550781 L 98.691406 32.839844 C 98.84375 32.640625 98.84375 32.445312 98.691406 32.25 Z M 98.09375 31.535156 " fill-opacity="1" fill-rule="nonzero"/></g><g clip-path="url(#9d6dc4e980)"><path fill="#ffffff" d="M 72.3125 31.683594 L 71.554688 34.28125 L 69.464844 35.21875 L 71.554688 36.15625 L 72.3125 38.75 L 73.066406 36.15625 L 75.1875 35.21875 L 73.066406 34.28125 Z M 89.679688 21.445312 C 89.773438 21.5625 89.898438 21.621094 90.046875 21.621094 C 90.195312 21.621094 90.320312 21.5625 90.414062 21.445312 L 90.660156 21.140625 C 90.730469 21.054688 90.765625 20.953125 90.765625 20.84375 C 90.765625 20.730469 90.730469 20.632812 90.660156 20.546875 L 90.414062 20.242188 C 90.320312 20.125 90.195312 20.066406 90.046875 20.066406 C 89.898438 20.066406 89.773438 20.125 89.679688 20.242188 L 89.433594 20.546875 C 89.363281 20.632812 89.328125 20.730469 89.328125 20.84375 C 89.328125 20.953125 89.363281 21.054688 89.433594 21.140625 Z M 91.914062 32.21875 L 87.507812 30.246094 L 85.898438 24.78125 L 84.308594 30.246094 L 79.90625 32.21875 L 84.308594 34.191406 L 85.898438 39.652344 L 87.492188 34.191406 Z M 93.898438 39.375 C 93.804688 39.257812 93.683594 39.199219 93.53125 39.199219 C 93.382812 39.199219 93.261719 39.257812 93.167969 39.375 L 93.046875 39.519531 C 92.894531 39.714844 92.894531 39.914062 93.046875 40.109375 L 93.167969 40.253906 C 93.261719 40.371094 93.382812 40.429688 93.53125 40.429688 C 93.683594 40.429688 93.804688 40.371094 93.898438 40.253906 L 94.011719 40.109375 C 94.082031 40.023438 94.117188 39.925781 94.117188 39.816406 C 94.117188 39.703125 94.082031 39.605469 94.011719 39.519531 Z M 101.984375 22.628906 L 101.257812 25.140625 L 99.230469 26.046875 L 101.257812 26.949219 L 101.984375 29.457031 L 102.714844 26.949219 L 104.738281 26.046875 L 102.714844 25.140625 Z M 110.972656 23.308594 L 110.550781 22.761719 C 110.457031 22.644531 110.335938 22.582031 110.183594 22.582031 C 110.03125 22.582031 109.910156 22.644531 109.816406 22.761719 L 109.394531 23.308594 C 109.324219 23.394531 109.289062 23.492188 109.289062 23.605469 C 109.289062 23.714844 109.324219 23.816406 109.394531 23.902344 L 109.816406 24.453125 C 109.910156 24.570312 110.03125 24.628906 110.183594 24.628906 C 110.332031 24.628906 110.457031 24.570312 110.550781 24.453125 L 110.972656 23.902344 C 111.042969 23.816406 111.078125 23.714844 111.078125 23.605469 C 111.078125 23.492188 111.042969 23.394531 110.972656 23.308594 Z M 88.054688 49.109375 L 87.871094 49.332031 C 87.71875 49.53125 87.71875 49.726562 87.871094 49.925781 L 88.054688 50.148438 C 88.148438 50.265625 88.269531 50.324219 88.421875 50.324219 C 88.570312 50.324219 88.691406 50.265625 88.785156 50.148438 L 88.96875 49.925781 C 89.039062 49.839844 89.074219 49.738281 89.074219 49.628906 C 89.074219 49.515625 89.039062 49.417969 88.96875 49.332031 L 88.785156 49.109375 C 88.691406 48.992188 88.570312 48.933594 88.421875 48.933594 C 88.269531 48.933594 88.148438 48.992188 88.054688 49.109375 Z M 89.207031 56.910156 L 88.425781 59.59375 L 86.257812 60.566406 L 88.425781 61.535156 L 89.207031 64.222656 L 89.988281 61.535156 L 92.160156 60.566406 L 89.988281 59.59375 Z M 89.207031 56.910156 " fill-opacity="1" fill-rule="nonzero"/></g><g fill="#ffffff" fill-opacity="1"><g transform="translate(123.380855, 68.624998)"><g><path d="M 1.03125 -3.65625 C 1.632812 -4.132812 1.910156 -4.351562 1.859375 -4.3125 C 3.597656 -5.75 4.96875 -6.929688 5.96875 -7.859375 C 6.976562 -8.785156 7.828125 -9.753906 8.515625 -10.765625 C 9.210938 -11.773438 9.5625 -12.757812 9.5625 -13.71875 C 9.5625 -14.445312 9.390625 -15.015625 9.046875 -15.421875 C 8.710938 -15.828125 8.210938 -16.03125 7.546875 -16.03125 C 6.867188 -16.03125 6.335938 -15.773438 5.953125 -15.265625 C 5.566406 -14.765625 5.375 -14.054688 5.375 -13.140625 L 0.984375 -13.140625 C 1.015625 -14.640625 1.335938 -15.894531 1.953125 -16.90625 C 2.566406 -17.925781 3.375 -18.675781 4.375 -19.15625 C 5.382812 -19.632812 6.5 -19.875 7.71875 -19.875 C 9.832031 -19.875 11.425781 -19.332031 12.5 -18.25 C 13.582031 -17.164062 14.125 -15.753906 14.125 -14.015625 C 14.125 -12.109375 13.472656 -10.34375 12.171875 -8.71875 C 10.878906 -7.09375 9.226562 -5.507812 7.21875 -3.96875 L 14.40625 -3.96875 L 14.40625 -0.265625 L 1.03125 -0.265625 Z M 1.03125 -3.65625 "/></g></g></g><g fill="#ffffff" fill-opacity="1"><g transform="translate(138.590384, 68.624998)"><g><path d="M 1.203125 -9.984375 C 1.203125 -13.046875 1.789062 -15.453125 2.96875 -17.203125 C 4.144531 -18.960938 6.050781 -19.84375 8.6875 -19.84375 C 11.3125 -19.84375 13.210938 -18.960938 14.390625 -17.203125 C 15.578125 -15.453125 16.171875 -13.046875 16.171875 -9.984375 C 16.171875 -6.898438 15.578125 -4.476562 14.390625 -2.71875 C 13.210938 -0.957031 11.3125 -0.078125 8.6875 -0.078125 C 6.050781 -0.078125 4.144531 -0.957031 2.96875 -2.71875 C 1.789062 -4.476562 1.203125 -6.898438 1.203125 -9.984375 Z M 11.6875 -9.984375 C 11.6875 -11.785156 11.488281 -13.164062 11.09375 -14.125 C 10.707031 -15.09375 9.90625 -15.578125 8.6875 -15.578125 C 7.457031 -15.578125 6.644531 -15.09375 6.25 -14.125 C 5.863281 -13.164062 5.671875 -11.785156 5.671875 -9.984375 C 5.671875 -8.773438 5.738281 -7.773438 5.875 -6.984375 C 6.019531 -6.203125 6.3125 -5.566406 6.75 -5.078125 C 7.1875 -4.585938 7.832031 -4.34375 8.6875 -4.34375 C 9.539062 -4.34375 10.179688 -4.585938 10.609375 -5.078125 C 11.046875 -5.566406 11.332031 -6.203125 11.46875 -6.984375 C 11.613281 -7.773438 11.6875 -8.773438 11.6875 -9.984375 Z M 11.6875 -9.984375 "/></g></g></g><g fill="#ffffff" fill-opacity="1"><g transform="translate(155.957491, 68.624998)"><g/></g></g><g fill="#ffffff" fill-opacity="1"><g transform="translate(161.604463, 68.624998)"><g><path d="M 22.828125 -18.703125 L 22.828125 0 L 18.28125 0 L 18.28125 -11.21875 L 14.09375 0 L 10.421875 0 L 6.203125 -11.25 L 6.203125 0 L 1.65625 0 L 1.65625 -18.703125 L 7.03125 -18.703125 L 12.28125 -5.75 L 17.46875 -18.703125 Z M 22.828125 -18.703125 "/></g></g></g><g fill="#ffffff" fill-opacity="1"><g transform="translate(186.056915, 68.624998)"><g><path d="M 12.96875 -9.59375 C 14.050781 -9.363281 14.921875 -8.828125 15.578125 -7.984375 C 16.242188 -7.140625 16.578125 -6.175781 16.578125 -5.09375 C 16.578125 -3.53125 16.03125 -2.289062 14.9375 -1.375 C 13.84375 -0.457031 12.316406 0 10.359375 0 L 1.65625 0 L 1.65625 -18.703125 L 10.0625 -18.703125 C 11.96875 -18.703125 13.457031 -18.265625 14.53125 -17.390625 C 15.601562 -16.523438 16.140625 -15.347656 16.140625 -13.859375 C 16.140625 -12.753906 15.847656 -11.835938 15.265625 -11.109375 C 14.691406 -10.378906 13.925781 -9.875 12.96875 -9.59375 Z M 6.203125 -11.140625 L 9.1875 -11.140625 C 9.9375 -11.140625 10.507812 -11.300781 10.90625 -11.625 C 11.3125 -11.957031 11.515625 -12.441406 11.515625 -13.078125 C 11.515625 -13.722656 11.3125 -14.210938 10.90625 -14.546875 C 10.507812 -14.878906 9.9375 -15.046875 9.1875 -15.046875 L 6.203125 -15.046875 Z M 9.5625 -3.671875 C 10.320312 -3.671875 10.910156 -3.84375 11.328125 -4.1875 C 11.753906 -4.539062 11.96875 -5.046875 11.96875 -5.703125 C 11.96875 -6.359375 11.75 -6.875 11.3125 -7.25 C 10.875 -7.625 10.273438 -7.8125 9.515625 -7.8125 L 6.203125 -7.8125 L 6.203125 -3.671875 Z M 9.5625 -3.671875 "/></g></g></g><g fill="#ffffff" fill-opacity="1"><g transform="translate(203.610468, 68.624998)"><g><path d="M 15.90625 -12.6875 C 15.90625 -11.601562 15.65625 -10.609375 15.15625 -9.703125 C 14.65625 -8.804688 13.890625 -8.082031 12.859375 -7.53125 C 11.835938 -6.988281 10.5625 -6.71875 9.03125 -6.71875 L 6.203125 -6.71875 L 6.203125 0 L 1.65625 0 L 1.65625 -18.703125 L 9.03125 -18.703125 C 10.519531 -18.703125 11.78125 -18.441406 12.8125 -17.921875 C 13.84375 -17.410156 14.613281 -16.703125 15.125 -15.796875 C 15.644531 -14.890625 15.90625 -13.851562 15.90625 -12.6875 Z M 8.6875 -10.34375 C 9.550781 -10.34375 10.195312 -10.546875 10.625 -10.953125 C 11.050781 -11.359375 11.265625 -11.9375 11.265625 -12.6875 C 11.265625 -13.425781 11.050781 -14 10.625 -14.40625 C 10.195312 -14.820312 9.550781 -15.03125 8.6875 -15.03125 L 6.203125 -15.03125 L 6.203125 -10.34375 Z M 8.6875 -10.34375 "/></g></g></g><g fill="#ffffff" fill-opacity="1"><g transform="translate(220.23174, 68.624998)"><g><path d="M 8.421875 0.1875 C 7.046875 0.1875 5.816406 -0.03125 4.734375 -0.46875 C 3.648438 -0.914062 2.785156 -1.570312 2.140625 -2.4375 C 1.492188 -3.3125 1.15625 -4.363281 1.125 -5.59375 L 5.96875 -5.59375 C 6.039062 -4.90625 6.28125 -4.378906 6.6875 -4.015625 C 7.09375 -3.648438 7.625 -3.46875 8.28125 -3.46875 C 8.957031 -3.46875 9.488281 -3.617188 9.875 -3.921875 C 10.269531 -4.234375 10.46875 -4.664062 10.46875 -5.21875 C 10.46875 -5.6875 10.3125 -6.066406 10 -6.359375 C 9.6875 -6.660156 9.300781 -6.910156 8.84375 -7.109375 C 8.394531 -7.304688 7.753906 -7.53125 6.921875 -7.78125 C 5.710938 -8.15625 4.726562 -8.523438 3.96875 -8.890625 C 3.207031 -9.265625 2.550781 -9.816406 2 -10.546875 C 1.445312 -11.273438 1.171875 -12.226562 1.171875 -13.40625 C 1.171875 -15.144531 1.800781 -16.503906 3.0625 -17.484375 C 4.320312 -18.472656 5.96875 -18.96875 8 -18.96875 C 10.050781 -18.96875 11.707031 -18.472656 12.96875 -17.484375 C 14.226562 -16.503906 14.90625 -15.132812 15 -13.375 L 10.0625 -13.375 C 10.03125 -13.976562 9.8125 -14.453125 9.40625 -14.796875 C 9 -15.140625 8.472656 -15.3125 7.828125 -15.3125 C 7.273438 -15.3125 6.832031 -15.164062 6.5 -14.875 C 6.164062 -14.582031 6 -14.160156 6 -13.609375 C 6 -13.003906 6.28125 -12.53125 6.84375 -12.1875 C 7.414062 -11.851562 8.304688 -11.492188 9.515625 -11.109375 C 10.722656 -10.703125 11.703125 -10.3125 12.453125 -9.9375 C 13.210938 -9.5625 13.863281 -9.019531 14.40625 -8.3125 C 14.957031 -7.601562 15.234375 -6.6875 15.234375 -5.5625 C 15.234375 -4.5 14.960938 -3.53125 14.421875 -2.65625 C 13.878906 -1.789062 13.09375 -1.097656 12.0625 -0.578125 C 11.03125 -0.0664062 9.816406 0.1875 8.421875 0.1875 Z M 8.421875 0.1875 "/></g></g></g><g fill="#ffffff" fill-opacity="1"><g transform="translate(103.765451, 45.165733)"><g><path d="M 3.5 -10.671875 L 3.5 -4.28125 C 3.5 -3.644531 3.65625 -3.15625 3.96875 -2.8125 C 4.28125 -2.46875 4.738281 -2.296875 5.34375 -2.296875 C 5.957031 -2.296875 6.425781 -2.46875 6.75 -2.8125 C 7.070312 -3.15625 7.234375 -3.644531 7.234375 -4.28125 L 7.234375 -10.671875 L 9.84375 -10.671875 L 9.84375 -4.296875 C 9.84375 -3.347656 9.640625 -2.539062 9.234375 -1.875 C 8.828125 -1.21875 8.28125 -0.722656 7.59375 -0.390625 C 6.90625 -0.0546875 6.144531 0.109375 5.3125 0.109375 C 4.46875 0.109375 3.710938 -0.0507812 3.046875 -0.375 C 2.378906 -0.707031 1.851562 -1.207031 1.46875 -1.875 C 1.082031 -2.539062 0.890625 -3.347656 0.890625 -4.296875 L 0.890625 -10.671875 Z M 3.5 -10.671875 "/></g></g></g><g fill="#ffffff" fill-opacity="1"><g transform="translate(114.484445, 45.165733)"><g><path d="M 9.078125 -7.234375 C 9.078125 -6.617188 8.929688 -6.054688 8.640625 -5.546875 C 8.359375 -5.035156 7.925781 -4.617188 7.34375 -4.296875 C 6.757812 -3.984375 6.03125 -3.828125 5.15625 -3.828125 L 3.546875 -3.828125 L 3.546875 0 L 0.9375 0 L 0.9375 -10.671875 L 5.15625 -10.671875 C 6.007812 -10.671875 6.726562 -10.523438 7.3125 -10.234375 C 7.894531 -9.941406 8.332031 -9.535156 8.625 -9.015625 C 8.925781 -8.492188 9.078125 -7.898438 9.078125 -7.234375 Z M 4.953125 -5.90625 C 5.453125 -5.90625 5.820312 -6.019531 6.0625 -6.25 C 6.3125 -6.476562 6.4375 -6.804688 6.4375 -7.234375 C 6.4375 -7.660156 6.3125 -7.988281 6.0625 -8.21875 C 5.820312 -8.457031 5.453125 -8.578125 4.953125 -8.578125 L 3.546875 -8.578125 L 3.546875 -5.90625 Z M 4.953125 -5.90625 "/></g></g></g><g fill="#ffffff" fill-opacity="1"><g transform="translate(123.971891, 45.165733)"><g/></g></g><g fill="#ffffff" fill-opacity="1"><g transform="translate(127.195191, 45.165733)"><g><path d="M 8.625 -10.671875 L 8.625 -8.59375 L 5.796875 -8.59375 L 5.796875 0 L 3.1875 0 L 3.1875 -8.59375 L 0.359375 -8.59375 L 0.359375 -10.671875 Z M 8.625 -10.671875 "/></g></g></g><g fill="#ffffff" fill-opacity="1"><g transform="translate(136.180898, 45.165733)"><g><path d="M 5.984375 0.109375 C 4.984375 0.109375 4.0625 -0.125 3.21875 -0.59375 C 2.382812 -1.0625 1.722656 -1.710938 1.234375 -2.546875 C 0.742188 -3.378906 0.5 -4.316406 0.5 -5.359375 C 0.5 -6.410156 0.742188 -7.347656 1.234375 -8.171875 C 1.722656 -9.003906 2.382812 -9.65625 3.21875 -10.125 C 4.0625 -10.59375 4.984375 -10.828125 5.984375 -10.828125 C 6.992188 -10.828125 7.914062 -10.59375 8.75 -10.125 C 9.582031 -9.65625 10.238281 -9.003906 10.71875 -8.171875 C 11.207031 -7.347656 11.453125 -6.410156 11.453125 -5.359375 C 11.453125 -4.316406 11.207031 -3.378906 10.71875 -2.546875 C 10.226562 -1.710938 9.566406 -1.0625 8.734375 -0.59375 C 7.910156 -0.125 6.992188 0.109375 5.984375 0.109375 Z M 5.984375 -2.265625 C 6.835938 -2.265625 7.519531 -2.546875 8.03125 -3.109375 C 8.539062 -3.679688 8.796875 -4.429688 8.796875 -5.359375 C 8.796875 -6.304688 8.539062 -7.0625 8.03125 -7.625 C 7.519531 -8.1875 6.835938 -8.46875 5.984375 -8.46875 C 5.128906 -8.46875 4.441406 -8.1875 3.921875 -7.625 C 3.410156 -7.070312 3.15625 -6.316406 3.15625 -5.359375 C 3.15625 -4.421875 3.410156 -3.671875 3.921875 -3.109375 C 4.441406 -2.546875 5.128906 -2.265625 5.984375 -2.265625 Z M 5.984375 -2.265625 "/></g></g></g><g clip-path="url(#ff082b011e)"><path fill="#ffffff" d="M 252.195312 65.113281 C 252.289062 65.230469 252.414062 65.289062 252.5625 65.289062 C 252.710938 65.289062 252.835938 65.230469 252.929688 65.113281 L 253.375 64.5625 C 253.445312 64.476562 253.480469 64.378906 253.480469 64.265625 C 253.480469 64.15625 253.445312 64.054688 253.375 63.96875 L 252.929688 63.421875 C 252.835938 63.304688 252.714844 63.246094 252.5625 63.246094 C 252.410156 63.246094 252.289062 63.304688 252.195312 63.421875 L 251.773438 63.96875 C 251.617188 64.167969 251.617188 64.367188 251.773438 64.5625 Z M 252.195312 92.113281 C 252.289062 92.230469 252.414062 92.289062 252.5625 92.289062 C 252.710938 92.289062 252.835938 92.230469 252.929688 92.113281 L 253.375 91.5625 C 253.445312 91.476562 253.480469 91.375 253.480469 91.265625 C 253.480469 91.152344 253.445312 91.054688 253.375 90.96875 L 252.929688 90.417969 C 252.835938 90.300781 252.710938 90.242188 252.5625 90.242188 C 252.414062 90.242188 252.289062 90.300781 252.195312 90.417969 L 251.773438 90.96875 C 251.617188 91.164062 251.617188 91.363281 251.773438 91.5625 Z M 233.410156 88.960938 L 233.65625 89.265625 C 233.75 89.382812 233.875 89.441406 234.023438 89.441406 C 234.175781 89.441406 234.300781 89.382812 234.394531 89.265625 L 234.640625 88.960938 C 234.710938 88.875 234.746094 88.773438 234.746094 88.664062 C 234.746094 88.550781 234.710938 88.453125 234.640625 88.367188 L 234.40625 88.050781 C 234.3125 87.933594 234.1875 87.875 234.039062 87.875 C 233.886719 87.875 233.765625 87.933594 233.667969 88.050781 L 233.421875 88.355469 C 233.347656 88.441406 233.308594 88.539062 233.308594 88.65625 C 233.304688 88.769531 233.339844 88.871094 233.410156 88.960938 Z M 235.425781 77 C 235.519531 77.117188 235.644531 77.175781 235.792969 77.175781 C 235.945312 77.175781 236.066406 77.117188 236.160156 77 L 236.734375 76.28125 C 236.804688 76.199219 236.839844 76.097656 236.839844 75.988281 C 236.839844 75.878906 236.804688 75.78125 236.734375 75.695312 L 236.160156 74.984375 C 236.066406 74.867188 235.945312 74.808594 235.792969 74.808594 C 235.644531 74.808594 235.519531 74.867188 235.425781 74.984375 L 234.828125 75.695312 C 234.675781 75.890625 234.675781 76.085938 234.828125 76.28125 Z M 235.425781 77 " fill-opacity="1" fill-rule="nonzero"/></g><g clip-path="url(#9497200e4a)"><path fill="#ffffff" d="M 261.207031 76.851562 L 261.964844 74.25 L 264.054688 73.3125 L 261.964844 72.378906 L 261.207031 69.78125 L 260.453125 72.378906 L 258.332031 73.3125 L 260.453125 74.25 Z M 243.839844 87.089844 C 243.746094 86.972656 243.625 86.914062 243.472656 86.914062 C 243.324219 86.914062 243.199219 86.972656 243.105469 87.089844 L 242.859375 87.394531 C 242.789062 87.480469 242.753906 87.578125 242.753906 87.691406 C 242.753906 87.800781 242.789062 87.898438 242.859375 87.984375 L 243.105469 88.292969 C 243.199219 88.410156 243.324219 88.464844 243.472656 88.464844 C 243.625 88.464844 243.746094 88.410156 243.839844 88.292969 L 244.085938 87.984375 C 244.15625 87.898438 244.191406 87.800781 244.191406 87.691406 C 244.191406 87.578125 244.15625 87.480469 244.085938 87.394531 Z M 241.605469 76.3125 L 246.011719 78.285156 L 247.621094 83.75 L 249.210938 78.285156 L 253.617188 76.3125 L 249.210938 74.34375 L 247.621094 68.878906 L 246.027344 74.34375 Z M 239.621094 69.160156 C 239.714844 69.277344 239.835938 69.335938 239.988281 69.335938 C 240.136719 69.335938 240.257812 69.277344 240.351562 69.160156 L 240.472656 69.015625 C 240.625 68.816406 240.625 68.621094 240.472656 68.421875 L 240.351562 68.277344 C 240.257812 68.160156 240.136719 68.101562 239.988281 68.101562 C 239.835938 68.101562 239.714844 68.160156 239.621094 68.277344 L 239.507812 68.421875 C 239.4375 68.507812 239.402344 68.605469 239.402344 68.71875 C 239.402344 68.828125 239.4375 68.929688 239.507812 69.015625 Z M 231.535156 85.902344 L 232.261719 83.390625 L 234.289062 82.484375 L 232.261719 81.582031 L 231.535156 79.074219 L 230.804688 81.582031 L 228.78125 82.484375 L 230.804688 83.390625 Z M 222.546875 85.226562 L 222.96875 85.769531 C 223.0625 85.890625 223.1875 85.949219 223.335938 85.949219 C 223.488281 85.949219 223.609375 85.890625 223.703125 85.769531 L 224.125 85.226562 C 224.195312 85.136719 224.230469 85.039062 224.230469 84.929688 C 224.230469 84.816406 224.195312 84.71875 224.125 84.632812 L 223.703125 84.082031 C 223.609375 83.964844 223.488281 83.90625 223.335938 83.90625 C 223.1875 83.90625 223.0625 83.964844 222.96875 84.082031 L 222.546875 84.632812 C 222.476562 84.71875 222.441406 84.816406 222.441406 84.929688 C 222.441406 85.039062 222.476562 85.136719 222.546875 85.226562 Z M 245.464844 59.425781 L 245.648438 59.199219 C 245.800781 59.003906 245.800781 58.804688 245.648438 58.609375 L 245.464844 58.382812 C 245.371094 58.265625 245.25 58.207031 245.097656 58.207031 C 244.949219 58.207031 244.828125 58.265625 244.734375 58.382812 L 244.550781 58.609375 C 244.480469 58.695312 244.445312 58.792969 244.445312 58.902344 C 244.445312 59.015625 244.480469 59.113281 244.550781 59.199219 L 244.734375 59.425781 C 244.828125 59.542969 244.949219 59.601562 245.097656 59.601562 C 245.25 59.601562 245.371094 59.542969 245.464844 59.425781 Z M 244.3125 51.621094 L 245.09375 48.9375 L 247.261719 47.96875 L 245.09375 46.996094 L 244.3125 44.3125 L 243.53125 46.996094 L 241.363281 47.96875 L 243.53125 48.9375 Z M 244.3125 51.621094 " fill-opacity="1" fill-rule="nonzero"/></g></svg>