<svg xmlns="http://www.w3.org/2000/svg" xmlns:xlink="http://www.w3.org/1999/xlink" width="40" zoomAndPan="magnify" viewBox="0 0 30 30.000001" height="40" preserveAspectRatio="xMidYMid meet" version="1.0"><defs><clipPath id="52f7bbcddd"><path d="M 0.484375 0 L 29.515625 0 L 29.515625 29.03125 L 0.484375 29.03125 Z M 0.484375 0 " clip-rule="nonzero"/></clipPath><clipPath id="ca25b68bf8"><path d="M 8.265625 9 L 22 9 L 22 20.277344 L 8.265625 20.277344 Z M 8.265625 9 " clip-rule="nonzero"/></clipPath></defs><g clip-path="url(#52f7bbcddd)"><path fill="#ffffff" d="M 0.484375 0 L 29.515625 0 L 29.515625 29.03125 L 0.484375 29.03125 Z M 0.484375 0 " fill-opacity="1" fill-rule="nonzero"/><path fill="#ffffff" d="M 0.484375 0 L 29.515625 0 L 29.515625 29.03125 L 0.484375 29.03125 Z M 0.484375 0 " fill-opacity="1" fill-rule="nonzero"/></g><g clip-path="url(#ca25b68bf8)"><path fill="#004aad" d="M 15.792969 9.347656 C 15.3125 10.882812 17.402344 11.847656 17.242188 12.363281 C 16.410156 12.683594 15.488281 12.214844 14.613281 12.472656 C 13.894531 12.425781 13.191406 12.601562 12.550781 12.914062 C 11.78125 13.164062 11.277344 13.8125 10.6875 14.320312 C 10.253906 14.519531 10.125 15.101562 9.835938 15.320312 C 9.375 15.257812 8.265625 15.28125 8.835938 16.113281 C 8.992188 16.414062 9.558594 16.90625 9.789062 16.6875 C 9.492188 17.042969 9.191406 16.863281 8.996094 17.300781 C 8.734375 17.828125 8.679688 18.445312 8.433594 18.960938 C 8.367188 19.332031 8.464844 20.359375 8.929688 20.125 C 9.839844 19.566406 9.148438 17.667969 11.34375 17.851562 C 11.917969 17.796875 12.320312 17.292969 12.757812 16.964844 C 13.101562 16.863281 13.511719 16.617188 13.800781 16.453125 C 14.453125 16.105469 16.738281 15.714844 16.9375 15.832031 C 17.613281 16.023438 18.347656 15.957031 19.007812 16.230469 C 19.347656 16.414062 20.414062 16.941406 20.332031 16.21875 C 20.289062 15.902344 19.484375 15.527344 20.183594 15.714844 C 20.671875 15.78125 21.421875 16.222656 21.722656 15.660156 C 21.699219 15.050781 21.074219 15.417969 20.78125 15.21875 C 20.460938 15.101562 20.328125 15.003906 19.925781 14.917969 C 19.179688 14.828125 19.808594 14.285156 20.25 14.304688 C 20.988281 14.269531 20.761719 13.242188 20.449219 12.890625 C 20.136719 12.238281 19.46875 11.882812 18.792969 11.710938 C 18.5 11.101562 18.261719 10.445312 17.828125 9.917969 C 17.527344 9.625 16.820312 9.359375 16.5625 9.632812 C 16.425781 9.679688 16.007812 8.671875 15.792969 9.347656 Z M 15.792969 9.347656 " fill-opacity="1" fill-rule="nonzero"/></g></svg>